/vscmnt/brussel_pixiu_data/_data_brussel/112/vsc11236/PredSimResults/SUBJ11opt3D/trackIG/worker_01.mot
version=1
nRows=4
nColumns=50
inDegrees=yes
endheader
                time	         pelvis_tilt	         pelvis_list	     pelvis_rotation	           pelvis_tx	           pelvis_ty	           pelvis_tz	       hip_flexion_r	     hip_adduction_r	      hip_rotation_r	        knee_angle_r	       ankle_angle_r	         mtp_angle_r	       hip_flexion_l	     hip_adduction_l	      hip_rotation_l	        knee_angle_l	       ankle_angle_l	         mtp_angle_l	    lumbar_extension	      lumbar_bending	     lumbar_rotation	 ercspn_r/activation	 intobl_r/activation	 extobl_r/activation	    abd_r/activation	    add_r/activation	hamstrings_r/activation	bifemsh_r/activation	glut_max_r/activation	iliopsoas_r/activation	rect_fem_r/activation	  vasti_r/activation	gastroc_r/activation	 soleus_r/activation	tib_ant_r/activation	 ercspn_l/activation	 intobl_l/activation	 extobl_l/activation	    abd_l/activation	    add_l/activation	hamstrings_l/activation	bifemsh_l/activation	glut_max_l/activation	iliopsoas_l/activation	rect_fem_l/activation	  vasti_l/activation	gastroc_l/activation	 soleus_l/activation	tib_ant_l/activation	
          0.00000000	        -11.10848558	         -2.46793460	          9.46938951	          0.00000000	          0.93629911	         -0.03251095	         36.24824507	         -3.85136624	          7.90235096	        -13.34821155	        -10.13922878	          0.36925910	          0.47388002	         -1.77846205	         13.95896231	        -17.53568796	         15.35203221	         26.71099111	          0.77075427	         -1.50071471	          2.52802145	          0.01334881	          0.13219035	          0.09133675	          0.00999999	          0.04107030	          0.00999999	          0.05406227	          0.00999999	          0.17685464	          0.05451612	          0.01885198	          0.00999999	          0.00999999	          0.11696593	          0.00999999	          0.00999999	          0.00999999	          0.10079475	          0.00999999	          0.00999999	          0.07426304	          0.04571444	          0.19391625	          0.16153036	          0.00999999	          0.09046710	          0.28599884	          0.00999999	
          0.02000000	        -11.49833491	         -2.60474951	          8.74596985	          0.01567761	          0.93354305	         -0.02661114	         36.26969989	         -2.76068653	          7.83397568	        -14.34524561	         -8.31953467	          1.23833359	          0.60955869	         -2.15637810	         12.42249560	        -18.86549351	         15.15293718	         28.29152732	          1.13446587	         -0.97167534	          2.16280413	          0.01001161	          0.09914276	          0.06850256	          0.00999999	          0.03080273	          0.00999999	          0.05618594	          0.11025508	          0.13264098	          0.04088709	          0.01413898	          0.01777776	          0.01333332	          0.08772444	          0.04556123	          0.00999999	          0.01742013	          0.07559606	          0.10034129	          0.00999999	          0.05569728	          0.03428583	          0.14543719	          0.12114777	          0.01056423	          0.06785033	          0.27338049	          0.00999999	
          0.04000000	        -11.89129427	         -2.82224859	          7.94630836	          0.03132703	          0.93198762	         -0.02054624	         36.31819833	         -1.74123547	          7.88293988	        -15.45387224	         -6.45354188	          2.32054848	          0.94129336	         -2.60640393	         10.85096553	        -20.45202461	         14.49783525	         30.02944726	          1.48718973	         -0.31741954	          1.79779619	          0.02858730	          0.07435707	          0.05137692	          0.02672389	          0.02310204	          0.02075913	          0.04213946	          0.17989035	          0.09948073	          0.03066532	          0.04237876	          0.01333332	          0.00999999	          0.06579333	          0.07865659	          0.00999999	          0.01306510	          0.05669705	          0.09343186	          0.00999999	          0.04177296	          0.04165340	          0.10907789	          0.12019376	          0.01333333	          0.05088774	          0.24667239	          0.00999999	
          0.06000000	        -12.28233367	         -3.05453415	          7.09826913	          0.04666164	          0.93220750	         -0.01433515	         36.29754212	         -0.68869628	          8.01036008	        -16.30950098	         -5.08944901	          3.18001468	          1.53700281	         -3.06006184	          9.17377385	        -22.34510977	         13.20496145	         31.94848801	          1.79885091	          0.36545437	          1.41512241	          0.02144048	          0.05576780	          0.03853269	          0.02004292	          0.01732653	          0.02627815	          0.03160459	          0.14041306	          0.07461055	          0.02299899	          0.07459602	          0.00999999	          0.00999999	          0.06457516	          0.09538568	          0.00999999	          0.00999999	          0.04252279	          0.07546375	          0.01446365	          0.03132972	          0.04629261	          0.08180842	          0.09014532	          0.01000000	          0.03816581	          0.20715812	          0.00999999	
